<?xml version="1.0" encoding="UTF-8" standalone="no"?>
<!DOCTYPE svg PUBLIC "-//W3C//DTD SVG 1.1//EN"
 "http://www.w3.org/Graphics/SVG/1.1/DTD/svg11.dtd">
<!-- Generated by graphviz version 2.44.0 (0)
 -->
<!-- Pages: 1 -->
<svg width="1232pt" height="404pt"
 viewBox="0.00 0.00 1231.88 404.00" xmlns="http://www.w3.org/2000/svg" xmlns:xlink="http://www.w3.org/1999/xlink">
<g id="graph0" class="graph" transform="scale(1 1) rotate(0) translate(4 400)">
<polygon fill="white" stroke="transparent" points="-4,4 -4,-400 1227.88,-400 1227.88,4 -4,4"/>
<!-- [root] aws_instance.Instance (expand) -->
<g id="node1" class="node">
<title>[root] aws_instance.Instance (expand)</title>
<polygon fill="none" stroke="black" points="644.88,-252 491.88,-252 491.88,-216 644.88,-216 644.88,-252"/>
<text text-anchor="middle" x="568.38" y="-230.3" font-family="Times-Roman" font-size="14.00">aws_instance.Instance</text>
</g>
<!-- [root] aws_key_pair.key&#45;tf (expand) -->
<g id="node2" class="node">
<title>[root] aws_key_pair.key&#45;tf (expand)</title>
<polygon fill="none" stroke="black" points="782.88,-180 647.88,-180 647.88,-144 782.88,-144 782.88,-180"/>
<text text-anchor="middle" x="715.38" y="-158.3" font-family="Times-Roman" font-size="14.00">aws_key_pair.key&#45;tf</text>
</g>
<!-- [root] aws_instance.Instance (expand)&#45;&gt;[root] aws_key_pair.key&#45;tf (expand) -->
<g id="edge1" class="edge">
<title>[root] aws_instance.Instance (expand)&#45;&gt;[root] aws_key_pair.key&#45;tf (expand)</title>
<path fill="none" stroke="black" d="M604.34,-215.88C624.26,-206.39 649.21,-194.51 670.4,-184.42"/>
<polygon fill="black" stroke="black" points="672.02,-187.53 679.54,-180.07 669.01,-181.21 672.02,-187.53"/>
</g>
<!-- [root] aws_security_group.sg&#45;terraform (expand) -->
<g id="node3" class="node">
<title>[root] aws_security_group.sg&#45;terraform (expand)</title>
<polygon fill="none" stroke="black" points="488.88,-180 273.88,-180 273.88,-144 488.88,-144 488.88,-180"/>
<text text-anchor="middle" x="381.38" y="-158.3" font-family="Times-Roman" font-size="14.00">aws_security_group.sg&#45;terraform</text>
</g>
<!-- [root] aws_instance.Instance (expand)&#45;&gt;[root] aws_security_group.sg&#45;terraform (expand) -->
<g id="edge2" class="edge">
<title>[root] aws_instance.Instance (expand)&#45;&gt;[root] aws_security_group.sg&#45;terraform (expand)</title>
<path fill="none" stroke="black" d="M522.64,-215.88C496.62,-206.14 463.86,-193.87 436.44,-183.61"/>
<polygon fill="black" stroke="black" points="437.57,-180.3 426.98,-180.07 435.12,-186.85 437.57,-180.3"/>
</g>
<!-- [root] data.aws_ami.amazon&#45;linux (expand) -->
<g id="node4" class="node">
<title>[root] data.aws_ami.amazon&#45;linux (expand)</title>
<polygon fill="none" stroke="black" points="1146.38,-180 960.38,-180 960.38,-144 1146.38,-144 1146.38,-180"/>
<text text-anchor="middle" x="1053.38" y="-158.3" font-family="Times-Roman" font-size="14.00">data.aws_ami.amazon&#45;linux</text>
</g>
<!-- [root] aws_instance.Instance (expand)&#45;&gt;[root] data.aws_ami.amazon&#45;linux (expand) -->
<g id="edge3" class="edge">
<title>[root] aws_instance.Instance (expand)&#45;&gt;[root] data.aws_ami.amazon&#45;linux (expand)</title>
<path fill="none" stroke="black" d="M645.25,-217.39C648,-216.91 650.71,-216.44 653.38,-216 753.78,-199.33 869.06,-184.51 949.99,-174.81"/>
<polygon fill="black" stroke="black" points="950.66,-178.25 960.18,-173.59 949.83,-171.3 950.66,-178.25"/>
</g>
<!-- [root] var.instance_type -->
<g id="node8" class="node">
<title>[root] var.instance_type</title>
<polygon fill="none" stroke="black" points="623.38,-180 507.38,-180 507.38,-144 629.38,-144 629.38,-174 623.38,-180"/>
<polyline fill="none" stroke="black" points="623.38,-180 623.38,-174 "/>
<polyline fill="none" stroke="black" points="629.38,-174 623.38,-174 "/>
<text text-anchor="middle" x="568.38" y="-158.3" font-family="Times-Roman" font-size="14.00">var.instance_type</text>
</g>
<!-- [root] aws_instance.Instance (expand)&#45;&gt;[root] var.instance_type -->
<g id="edge4" class="edge">
<title>[root] aws_instance.Instance (expand)&#45;&gt;[root] var.instance_type</title>
<path fill="none" stroke="black" d="M568.38,-215.7C568.38,-207.98 568.38,-198.71 568.38,-190.11"/>
<polygon fill="black" stroke="black" points="571.88,-190.1 568.38,-180.1 564.88,-190.1 571.88,-190.1"/>
</g>
<!-- [root] provider[&quot;registry.terraform.io/hashicorp/aws&quot;] -->
<g id="node5" class="node">
<title>[root] provider[&quot;registry.terraform.io/hashicorp/aws&quot;]</title>
<polygon fill="none" stroke="black" points="708.38,-108 440.1,-90 708.38,-72 976.67,-90 708.38,-108"/>
<text text-anchor="middle" x="708.38" y="-86.3" font-family="Times-Roman" font-size="14.00">provider[&quot;registry.terraform.io/hashicorp/aws&quot;]</text>
</g>
<!-- [root] aws_key_pair.key&#45;tf (expand)&#45;&gt;[root] provider[&quot;registry.terraform.io/hashicorp/aws&quot;] -->
<g id="edge5" class="edge">
<title>[root] aws_key_pair.key&#45;tf (expand)&#45;&gt;[root] provider[&quot;registry.terraform.io/hashicorp/aws&quot;]</title>
<path fill="none" stroke="black" d="M713.65,-143.7C712.88,-135.98 711.96,-126.71 711.1,-118.11"/>
<polygon fill="black" stroke="black" points="714.57,-117.71 710.09,-108.1 707.61,-118.4 714.57,-117.71"/>
</g>
<!-- [root] aws_security_group.sg&#45;terraform (expand)&#45;&gt;[root] provider[&quot;registry.terraform.io/hashicorp/aws&quot;] -->
<g id="edge6" class="edge">
<title>[root] aws_security_group.sg&#45;terraform (expand)&#45;&gt;[root] provider[&quot;registry.terraform.io/hashicorp/aws&quot;]</title>
<path fill="none" stroke="black" d="M460.96,-143.97C515.04,-132.39 585.93,-117.21 637.96,-106.08"/>
<polygon fill="black" stroke="black" points="638.73,-109.49 647.77,-103.98 637.26,-102.65 638.73,-109.49"/>
</g>
<!-- [root] var.ports -->
<g id="node10" class="node">
<title>[root] var.ports</title>
<polygon fill="none" stroke="black" points="409.88,-108 346.88,-108 346.88,-72 415.88,-72 415.88,-102 409.88,-108"/>
<polyline fill="none" stroke="black" points="409.88,-108 409.88,-102 "/>
<polyline fill="none" stroke="black" points="415.88,-102 409.88,-102 "/>
<text text-anchor="middle" x="381.38" y="-86.3" font-family="Times-Roman" font-size="14.00">var.ports</text>
</g>
<!-- [root] aws_security_group.sg&#45;terraform (expand)&#45;&gt;[root] var.ports -->
<g id="edge7" class="edge">
<title>[root] aws_security_group.sg&#45;terraform (expand)&#45;&gt;[root] var.ports</title>
<path fill="none" stroke="black" d="M381.38,-143.7C381.38,-135.98 381.38,-126.71 381.38,-118.11"/>
<polygon fill="black" stroke="black" points="384.88,-118.1 381.38,-108.1 377.88,-118.1 384.88,-118.1"/>
</g>
<!-- [root] data.aws_ami.amazon&#45;linux (expand)&#45;&gt;[root] provider[&quot;registry.terraform.io/hashicorp/aws&quot;] -->
<g id="edge8" class="edge">
<title>[root] data.aws_ami.amazon&#45;linux (expand)&#45;&gt;[root] provider[&quot;registry.terraform.io/hashicorp/aws&quot;]</title>
<path fill="none" stroke="black" d="M969.43,-143.97C911.97,-132.31 836.53,-117 781.54,-105.84"/>
<polygon fill="black" stroke="black" points="782.01,-102.37 771.51,-103.81 780.62,-109.23 782.01,-102.37"/>
</g>
<!-- [root] var.image_name -->
<g id="node7" class="node">
<title>[root] var.image_name</title>
<polygon fill="none" stroke="black" points="1106.38,-108 994.38,-108 994.38,-72 1112.38,-72 1112.38,-102 1106.38,-108"/>
<polyline fill="none" stroke="black" points="1106.38,-108 1106.38,-102 "/>
<polyline fill="none" stroke="black" points="1112.38,-102 1106.38,-102 "/>
<text text-anchor="middle" x="1053.38" y="-86.3" font-family="Times-Roman" font-size="14.00">var.image_name</text>
</g>
<!-- [root] data.aws_ami.amazon&#45;linux (expand)&#45;&gt;[root] var.image_name -->
<g id="edge9" class="edge">
<title>[root] data.aws_ami.amazon&#45;linux (expand)&#45;&gt;[root] var.image_name</title>
<path fill="none" stroke="black" d="M1053.38,-143.7C1053.38,-135.98 1053.38,-126.71 1053.38,-118.11"/>
<polygon fill="black" stroke="black" points="1056.88,-118.1 1053.38,-108.1 1049.88,-118.1 1056.88,-118.1"/>
</g>
<!-- [root] var.owner_id -->
<g id="node9" class="node">
<title>[root] var.owner_id</title>
<polygon fill="none" stroke="black" points="1217.88,-108 1130.88,-108 1130.88,-72 1223.88,-72 1223.88,-102 1217.88,-108"/>
<polyline fill="none" stroke="black" points="1217.88,-108 1217.88,-102 "/>
<polyline fill="none" stroke="black" points="1223.88,-102 1217.88,-102 "/>
<text text-anchor="middle" x="1177.38" y="-86.3" font-family="Times-Roman" font-size="14.00">var.owner_id</text>
</g>
<!-- [root] data.aws_ami.amazon&#45;linux (expand)&#45;&gt;[root] var.owner_id -->
<g id="edge10" class="edge">
<title>[root] data.aws_ami.amazon&#45;linux (expand)&#45;&gt;[root] var.owner_id</title>
<path fill="none" stroke="black" d="M1083.72,-143.88C1100.08,-134.64 1120.47,-123.13 1138.04,-113.21"/>
<polygon fill="black" stroke="black" points="1139.95,-116.15 1146.93,-108.19 1136.5,-110.06 1139.95,-116.15"/>
</g>
<!-- [root] var.access_key -->
<g id="node6" class="node">
<title>[root] var.access_key</title>
<polygon fill="none" stroke="black" points="694.38,-36 590.38,-36 590.38,0 700.38,0 700.38,-30 694.38,-36"/>
<polyline fill="none" stroke="black" points="694.38,-36 694.38,-30 "/>
<polyline fill="none" stroke="black" points="700.38,-30 694.38,-30 "/>
<text text-anchor="middle" x="645.38" y="-14.3" font-family="Times-Roman" font-size="14.00">var.access_key</text>
</g>
<!-- [root] provider[&quot;registry.terraform.io/hashicorp/aws&quot;]&#45;&gt;[root] var.access_key -->
<g id="edge15" class="edge">
<title>[root] provider[&quot;registry.terraform.io/hashicorp/aws&quot;]&#45;&gt;[root] var.access_key</title>
<path fill="none" stroke="black" d="M693.77,-72.76C685.97,-64.1 676.21,-53.25 667.5,-43.57"/>
<polygon fill="black" stroke="black" points="670.09,-41.22 660.8,-36.12 664.88,-45.9 670.09,-41.22"/>
</g>
<!-- [root] var.secret_key -->
<g id="node11" class="node">
<title>[root] var.secret_key</title>
<polygon fill="none" stroke="black" points="816.38,-36 718.38,-36 718.38,0 822.38,0 822.38,-30 816.38,-36"/>
<polyline fill="none" stroke="black" points="816.38,-36 816.38,-30 "/>
<polyline fill="none" stroke="black" points="822.38,-30 816.38,-30 "/>
<text text-anchor="middle" x="770.38" y="-14.3" font-family="Times-Roman" font-size="14.00">var.secret_key</text>
</g>
<!-- [root] provider[&quot;registry.terraform.io/hashicorp/aws&quot;]&#45;&gt;[root] var.secret_key -->
<g id="edge16" class="edge">
<title>[root] provider[&quot;registry.terraform.io/hashicorp/aws&quot;]&#45;&gt;[root] var.secret_key</title>
<path fill="none" stroke="black" d="M722.76,-72.76C730.37,-64.18 739.86,-53.46 748.37,-43.86"/>
<polygon fill="black" stroke="black" points="751.21,-45.93 755.22,-36.12 745.97,-41.29 751.21,-45.93"/>
</g>
<!-- [root] output.ami_id (expand) -->
<g id="node12" class="node">
<title>[root] output.ami_id (expand)</title>
<ellipse fill="none" stroke="black" cx="1072.38" cy="-234" rx="124.28" ry="18"/>
<text text-anchor="middle" x="1072.38" y="-230.3" font-family="Times-Roman" font-size="14.00">[root] output.ami_id (expand)</text>
</g>
<!-- [root] output.ami_id (expand)&#45;&gt;[root] data.aws_ami.amazon&#45;linux (expand) -->
<g id="edge11" class="edge">
<title>[root] output.ami_id (expand)&#45;&gt;[root] data.aws_ami.amazon&#45;linux (expand)</title>
<path fill="none" stroke="black" d="M1067.69,-215.7C1065.57,-207.9 1063.02,-198.51 1060.67,-189.83"/>
<polygon fill="black" stroke="black" points="1064.02,-188.84 1058.03,-180.1 1057.27,-190.67 1064.02,-188.84"/>
</g>
<!-- [root] output.keyname (expand) -->
<g id="node13" class="node">
<title>[root] output.keyname (expand)</title>
<ellipse fill="none" stroke="black" cx="796.38" cy="-234" rx="133.78" ry="18"/>
<text text-anchor="middle" x="796.38" y="-230.3" font-family="Times-Roman" font-size="14.00">[root] output.keyname (expand)</text>
</g>
<!-- [root] output.keyname (expand)&#45;&gt;[root] aws_key_pair.key&#45;tf (expand) -->
<g id="edge12" class="edge">
<title>[root] output.keyname (expand)&#45;&gt;[root] aws_key_pair.key&#45;tf (expand)</title>
<path fill="none" stroke="black" d="M776.78,-216.05C766.6,-207.26 754.01,-196.38 742.88,-186.76"/>
<polygon fill="black" stroke="black" points="744.95,-183.92 735.09,-180.03 740.37,-189.22 744.95,-183.92"/>
</g>
<!-- [root] output.securityGroupDetails (expand) -->
<g id="node14" class="node">
<title>[root] output.securityGroupDetails (expand)</title>
<ellipse fill="none" stroke="black" cx="179.38" cy="-306" rx="179.27" ry="18"/>
<text text-anchor="middle" x="179.38" y="-302.3" font-family="Times-Roman" font-size="14.00">[root] output.securityGroupDetails (expand)</text>
</g>
<!-- [root] output.securityGroupDetails (expand)&#45;&gt;[root] aws_security_group.sg&#45;terraform (expand) -->
<g id="edge13" class="edge">
<title>[root] output.securityGroupDetails (expand)&#45;&gt;[root] aws_security_group.sg&#45;terraform (expand)</title>
<path fill="none" stroke="black" d="M203.35,-288.15C239.55,-262.71 308.25,-214.41 348.91,-185.83"/>
<polygon fill="black" stroke="black" points="350.97,-188.66 357.14,-180.05 346.94,-182.93 350.97,-188.66"/>
</g>
<!-- [root] provider[&quot;registry.terraform.io/hashicorp/aws&quot;] (close) -->
<g id="node15" class="node">
<title>[root] provider[&quot;registry.terraform.io/hashicorp/aws&quot;] (close)</title>
<ellipse fill="none" stroke="black" cx="618.38" cy="-306" rx="241.26" ry="18"/>
<text text-anchor="middle" x="618.38" y="-302.3" font-family="Times-Roman" font-size="14.00">[root] provider[&quot;registry.terraform.io/hashicorp/aws&quot;] (close)</text>
</g>
<!-- [root] provider[&quot;registry.terraform.io/hashicorp/aws&quot;] (close)&#45;&gt;[root] aws_instance.Instance (expand) -->
<g id="edge14" class="edge">
<title>[root] provider[&quot;registry.terraform.io/hashicorp/aws&quot;] (close)&#45;&gt;[root] aws_instance.Instance (expand)</title>
<path fill="none" stroke="black" d="M606.02,-287.7C600.15,-279.47 593.01,-269.48 586.54,-260.42"/>
<polygon fill="black" stroke="black" points="589.26,-258.21 580.6,-252.1 583.57,-262.28 589.26,-258.21"/>
</g>
<!-- [root] root -->
<g id="node16" class="node">
<title>[root] root</title>
<ellipse fill="none" stroke="black" cx="752.38" cy="-378" rx="48.19" ry="18"/>
<text text-anchor="middle" x="752.38" y="-374.3" font-family="Times-Roman" font-size="14.00">[root] root</text>
</g>
<!-- [root] root&#45;&gt;[root] output.ami_id (expand) -->
<g id="edge17" class="edge">
<title>[root] root&#45;&gt;[root] output.ami_id (expand)</title>
<path fill="none" stroke="black" d="M784.89,-364.58C811.75,-354.17 850.78,-338.68 884.38,-324 935.02,-301.87 992.3,-274.4 1030.18,-255.87"/>
<polygon fill="black" stroke="black" points="1031.94,-258.91 1039.38,-251.37 1028.86,-252.62 1031.94,-258.91"/>
</g>
<!-- [root] root&#45;&gt;[root] output.keyname (expand) -->
<g id="edge18" class="edge">
<title>[root] root&#45;&gt;[root] output.keyname (expand)</title>
<path fill="none" stroke="black" d="M795.09,-369.45C821.08,-362.41 852.29,-349.05 868.38,-324 877.03,-310.54 875.6,-302.28 868.38,-288 862.02,-275.4 851.09,-265.07 839.64,-256.98"/>
<polygon fill="black" stroke="black" points="841.56,-254.05 831.28,-251.49 837.71,-259.9 841.56,-254.05"/>
</g>
<!-- [root] root&#45;&gt;[root] output.securityGroupDetails (expand) -->
<g id="edge19" class="edge">
<title>[root] root&#45;&gt;[root] output.securityGroupDetails (expand)</title>
<path fill="none" stroke="black" d="M707.42,-371.51C620.21,-360.85 425.52,-337.07 298.48,-321.55"/>
<polygon fill="black" stroke="black" points="298.66,-318.05 288.31,-320.31 297.81,-324.99 298.66,-318.05"/>
</g>
<!-- [root] root&#45;&gt;[root] provider[&quot;registry.terraform.io/hashicorp/aws&quot;] (close) -->
<g id="edge20" class="edge">
<title>[root] root&#45;&gt;[root] provider[&quot;registry.terraform.io/hashicorp/aws&quot;] (close)</title>
<path fill="none" stroke="black" d="M725.59,-363C706.74,-353.16 681.16,-339.79 659.72,-328.59"/>
<polygon fill="black" stroke="black" points="661.29,-325.47 650.81,-323.94 658.05,-331.67 661.29,-325.47"/>
</g>
</g>
</svg>
